<svg 
 xmlns="http://www.w3.org/2000/svg"
 xmlns:xlink="http://www.w3.org/1999/xlink"
 width="36px" height="36px" viewBox="0 0 36 36">
<path fill-rule="evenodd"  fill="rgb(28, 127, 239)"
 d="M17.999,35.999 C8.058,35.999 -0.001,27.940 -0.001,18.000 C-0.001,8.058 8.058,-0.000 17.999,-0.000 C27.941,-0.000 35.999,8.058 35.999,18.000 C35.999,27.940 27.941,35.999 17.999,35.999 ZM28.030,29.130 C27.217,26.723 25.444,25.768 23.565,25.156 C22.038,24.659 20.996,23.957 20.450,23.535 C19.652,24.000 18.832,24.238 18.003,24.238 C17.153,24.238 16.324,24.010 15.545,23.546 C14.636,24.227 13.563,24.789 12.430,25.167 C10.552,25.778 8.781,26.732 7.967,29.128 C10.626,31.527 14.136,33.000 17.999,33.000 C21.861,33.000 25.371,31.527 28.030,29.130 ZM21.967,11.409 C21.957,11.376 21.259,8.836 18.003,8.836 C14.959,8.836 14.160,11.009 14.028,11.441 C13.745,12.565 13.785,13.840 13.795,13.981 C13.816,14.576 13.482,15.127 12.966,15.354 C13.007,15.613 13.128,15.959 13.320,16.359 C13.654,16.586 13.957,16.834 14.089,17.321 C14.321,18.153 15.960,21.427 18.003,21.427 C19.934,21.427 21.633,18.304 21.907,17.321 C22.058,16.791 22.433,16.521 22.675,16.359 C22.948,15.808 23.019,15.483 23.029,15.332 C22.533,15.138 22.179,14.576 22.210,13.981 C22.220,13.754 22.251,12.544 21.967,11.409 ZM17.999,2.999 C9.715,2.999 3.000,9.715 3.000,18.000 C3.000,21.349 4.111,24.432 5.967,26.928 C7.344,24.230 9.712,23.097 11.632,22.465 C12.279,22.260 12.876,21.978 13.422,21.633 C12.461,20.401 11.894,19.093 11.702,18.607 C11.500,18.477 11.298,18.315 11.146,18.034 C10.277,16.434 10.074,15.094 10.549,14.056 C10.691,13.732 10.883,13.462 11.116,13.246 C11.136,12.598 11.207,11.657 11.450,10.674 C11.864,9.063 13.766,6.015 18.003,6.015 C22.240,6.015 24.131,9.063 24.546,10.674 C24.799,11.689 24.870,12.684 24.880,13.246 C25.122,13.462 25.314,13.732 25.456,14.056 C25.922,15.084 25.719,16.424 24.850,18.034 C24.698,18.315 24.496,18.477 24.303,18.607 C24.091,19.169 23.555,20.401 22.564,21.633 C22.979,21.893 23.585,22.217 24.364,22.476 C26.281,23.107 28.653,24.238 30.034,26.926 C31.889,24.430 33.000,21.348 33.000,18.000 C33.000,9.715 26.283,2.999 17.999,2.999 Z"/>
</svg>