<svg xmlns="http://www.w3.org/2000/svg" viewBox="0 -1 19 19">
  <g>
    <path fill-rule="evenodd" d="M9.410,7.997 L15.066,13.653 C15.458,14.042 15.458,14.676 15.066,15.068 C14.676,15.458 14.043,15.458 13.652,15.068 L7.995,9.412 L2.339,15.068 C1.947,15.458 1.314,15.458 0.925,15.068 C0.533,14.676 0.533,14.042 0.925,13.653 L6.580,7.997 L0.925,2.342 C0.533,1.948 0.533,1.315 0.925,0.924 C1.314,0.534 1.947,0.534 2.339,0.924 L7.995,6.582 L13.652,0.924 C14.043,0.534 14.676,0.534 15.066,0.924 C15.458,1.315 15.458,1.948 15.066,2.342 L9.410,7.997 Z"/>
  </g>
</svg>
