<svg
 xmlns="http://www.w3.org/2000/svg"
 xmlns:xlink="http://www.w3.org/1999/xlink"
 width="26px" height="18px">
<path fill-rule="evenodd"  fill="rgb(156, 166, 177)"
 d="M22.963,8.435 C22.578,8.256 22.367,7.857 22.428,7.449 C22.576,6.440 22.455,5.349 21.885,4.204 C21.008,2.444 19.272,1.150 17.267,0.896 C14.831,0.591 12.634,1.692 11.422,3.473 C11.117,3.919 10.476,4.005 10.024,3.701 C9.025,3.031 7.722,2.762 6.336,3.165 C5.592,3.381 4.950,3.817 4.443,4.386 C3.404,5.554 3.300,6.611 3.412,7.490 C3.468,7.934 3.205,8.356 2.800,8.577 C1.196,9.454 0.137,11.145 0.259,13.079 C0.420,15.683 2.819,17.636 5.521,17.636 L9.897,17.636 C10.735,17.636 11.415,16.980 11.415,16.169 L11.415,14.592 C11.415,14.231 11.112,13.937 10.737,13.937 L9.212,13.937 C8.788,13.937 8.557,13.459 8.829,13.145 L12.842,8.497 C13.112,8.183 13.611,8.183 13.881,8.497 L17.894,13.145 C18.167,13.459 17.936,13.937 17.511,13.937 L15.968,13.937 C15.591,13.937 15.288,14.231 15.288,14.592 L15.288,16.169 C15.288,16.980 15.968,17.636 16.806,17.636 L20.591,17.636 C23.085,17.636 25.345,15.961 25.738,13.582 C26.112,11.326 24.871,9.325 22.963,8.435 Z"/>
</svg>
