<svg xmlns="http://www.w3.org/2000/svg" 
    xmlns:xlink="http://www.w3.org/1999/xlink" width="36px" height="36px" viewBox="0 0 36 36" fill="rgb(28, 127, 239)">
    <path fill-rule="evenodd" d="M17.999,35.999 C8.058,35.999 -0.001,27.940 -0.001,18.000 C-0.001,8.058 8.058,-0.000 17.999,-0.000 C27.941,-0.000 35.999,8.058 35.999,18.000 C35.999,27.940 27.941,35.999 17.999,35.999 ZM17.999,2.999 C9.715,2.999 3.000,9.715 3.000,18.000 C3.000,26.283 9.715,33.000 17.999,33.000 C26.283,33.000 33.000,26.283 33.000,18.000 C33.000,9.715 26.283,2.999 17.999,2.999 ZM17.934,16.214 C24.275,18.256 24.134,21.890 23.939,23.012 C23.635,24.772 22.370,26.132 20.724,26.769 C20.766,26.898 20.794,27.031 20.794,27.172 L20.794,28.583 C20.794,29.362 20.123,29.994 19.292,29.994 C18.459,29.994 17.785,29.362 17.785,28.583 L17.785,27.172 C17.785,27.156 17.789,27.141 17.790,27.125 C14.611,26.892 13.058,25.273 12.451,24.565 L12.345,24.528 C11.812,23.929 11.899,23.084 12.538,22.586 C13.177,22.086 14.126,22.189 14.658,22.787 L14.800,22.787 C15.316,23.393 16.278,24.348 18.543,24.348 C18.562,24.348 18.582,24.348 18.602,24.348 C19.720,24.348 20.780,23.627 20.968,22.547 C21.233,21.019 19.734,19.661 16.954,18.766 C14.031,17.823 12.447,15.658 12.920,13.091 C13.347,10.774 15.338,9.150 17.785,8.882 L17.785,7.419 C17.785,6.638 18.459,6.006 19.292,6.006 C20.123,6.006 20.794,6.638 20.794,7.419 L20.794,9.240 C22.375,9.842 23.373,10.975 23.770,11.749 C24.131,12.451 23.816,13.267 23.066,13.605 C22.319,13.940 21.432,13.694 21.065,13.003 C20.982,12.852 20.249,11.652 18.524,11.652 C18.512,11.652 18.500,11.652 18.488,11.652 C17.025,11.652 16.074,12.607 15.886,13.616 C15.668,14.796 16.416,15.724 17.934,16.214 Z"/>
</svg>