<svg 
 xmlns="http://www.w3.org/2000/svg"
 xmlns:xlink="http://www.w3.org/1999/xlink"
 width="26px" height="26px">
<path fill-rule="evenodd"  fill="rgb(255, 255, 255)"
 d="M24.857,9.500 C24.852,10.337 24.167,11.018 23.330,11.021 C22.485,11.023 21.805,10.337 21.810,9.490 L22.351,5.563 L18.353,9.560 C21.571,13.489 21.348,19.293 17.681,22.960 C13.776,26.865 7.444,26.865 3.539,22.960 C-0.366,19.055 -0.366,12.723 3.539,8.817 C6.960,5.397 12.243,4.973 16.125,7.546 L19.564,4.107 L16.260,3.972 C15.422,3.971 14.747,3.293 14.754,2.454 L14.750,2.451 C14.752,1.606 15.439,0.922 16.284,0.926 L25.588,1.174 L24.857,9.500 ZM5.661,10.939 C2.927,13.673 2.927,18.105 5.661,20.839 C8.394,23.572 12.826,23.572 15.560,20.839 C18.293,18.105 18.293,13.673 15.560,10.939 C12.826,8.205 8.394,8.205 5.661,10.939 Z"/>
</svg>