<svg 
 xmlns="http://www.w3.org/2000/svg"
 xmlns:xlink="http://www.w3.org/1999/xlink"
 width="4px" height="16px">
<path fill-rule="evenodd"  fill="rgb(255, 255, 255)"
 d="M1.995,15.998 C0.893,15.998 -0.005,15.097 -0.005,13.997 C-0.005,12.897 0.893,11.996 1.995,11.996 C3.094,11.996 3.995,12.897 3.995,13.997 C3.995,15.097 3.094,15.998 1.995,15.998 ZM1.995,5.997 C3.094,5.997 3.995,6.898 3.995,7.996 C3.995,9.097 3.094,9.998 1.995,9.998 C0.893,9.998 -0.005,9.097 -0.005,7.996 C-0.005,6.898 0.893,5.997 1.995,5.997 ZM1.995,-0.004 C3.094,-0.004 3.995,0.898 3.995,1.997 C3.995,3.097 3.094,3.996 1.995,3.996 C0.893,3.996 -0.005,3.097 -0.005,1.997 C-0.005,0.898 0.893,-0.004 1.995,-0.004 Z"/>
</svg>