<svg
  xmlns="http://www.w3.org/2000/svg"
  width="51px" height="39px">
<path fill-rule="evenodd"  fill="rgb(255, 255, 255)"
 d="M33.996,20.998 C33.996,25.968 29.966,29.997 24.996,29.997 C20.026,29.997 15.996,25.968 15.996,20.998 C15.996,16.025 20.026,11.997 24.996,11.997 C29.966,11.997 33.996,16.025 33.996,20.998 ZM50.996,9.483 L50.996,35.834 C50.996,37.580 49.627,38.998 47.936,38.998 L3.056,38.998 C1.366,38.998 -0.004,37.580 -0.004,35.834 L-0.004,9.483 C-0.004,7.738 1.366,5.997 3.056,5.997 L10.997,5.997 C11.678,5.997 12.315,5.969 12.694,5.384 L16.731,0.936 C17.110,0.349 17.745,-0.002 18.428,-0.002 L32.565,-0.002 C33.245,-0.002 33.883,0.349 34.262,0.936 L38.299,5.384 C38.677,5.969 39.314,5.997 39.996,5.997 L47.936,5.997 C49.627,5.997 50.996,7.738 50.996,9.483 ZM37.496,20.998 C37.496,14.104 31.889,8.497 24.996,8.497 C18.104,8.497 12.496,14.104 12.496,20.998 C12.496,27.888 18.104,33.497 24.996,33.497 C31.889,33.497 37.496,27.888 37.496,20.998 Z"/>
</svg>
