<svg
  xmlns="http://www.w3.org/2000/svg"
  width="40px" height="42px">
<path fill-rule="evenodd"  fill="rgb(156, 166, 177)"
 d="M34.696,42.012 L5.303,42.012 C2.364,42.012 0.013,39.678 0.013,36.759 L0.013,11.663 C0.013,8.745 2.364,6.410 5.303,6.410 L34.696,6.410 C37.635,6.410 39.987,8.745 39.987,11.663 L39.987,36.759 C39.987,39.678 37.635,42.012 34.696,42.012 ZM28.405,16.157 C28.405,15.165 27.642,14.406 26.642,14.406 C25.642,14.406 24.878,15.165 24.878,16.157 L24.878,18.842 L15.119,18.842 L15.119,16.157 C15.119,15.165 14.355,14.406 13.357,14.406 C12.357,14.406 11.593,15.165 11.593,16.157 L11.593,20.592 C11.593,21.585 12.357,22.344 13.357,22.344 L26.642,22.344 C27.642,22.344 28.405,21.585 28.405,20.592 L28.405,16.157 ZM34.696,3.491 L5.303,3.491 C4.303,3.491 3.539,2.733 3.539,1.741 C3.539,0.748 4.303,-0.011 5.303,-0.011 L34.696,-0.011 C35.694,-0.011 36.459,0.748 36.459,1.741 C36.459,2.733 35.694,3.491 34.696,3.491 Z"/>
</svg>
