<svg
  xmlns="http://www.w3.org/2000/svg"
  width="22px" height="24px">
<path fill-rule="evenodd"  opacity="0.502" fill="rgb(28, 127, 239)"
 d="M15.002,22.146 C16.228,21.428 16.656,19.831 15.954,18.596 L11.499,21.208 C12.200,22.442 13.766,22.871 15.002,22.146 ZM17.858,11.495 L14.668,5.885 C12.710,2.440 9.243,0.628 5.623,1.732 L5.190,0.969 C4.660,0.038 3.487,-0.276 2.562,0.266 C1.637,0.808 1.319,1.997 1.848,2.928 L2.281,3.691 C-0.482,6.329 -0.664,10.266 1.301,13.722 L4.491,19.332 L3.539,22.882 L4.177,24.005 L22.000,13.556 L21.361,12.434 L17.858,11.495 Z"/>
</svg>
