<svg 
 xmlns="http://www.w3.org/2000/svg"
 xmlns:xlink="http://www.w3.org/1999/xlink"
 width="124px" height="136px">
<path fill-rule="evenodd"  fill="rgb(197, 205, 213)"
 d="M84.412,124.821 C91.274,120.800 93.674,111.850 89.742,104.939 L64.792,119.565 C68.718,126.481 77.488,128.878 84.412,124.821 ZM100.403,65.173 L82.539,33.756 C71.574,14.466 52.159,4.314 31.890,10.500 L29.461,6.228 C26.497,1.014 19.924,-0.748 14.745,2.290 C9.566,5.321 7.784,11.985 10.748,17.201 L13.175,21.473 C-2.299,36.240 -3.318,58.287 7.684,77.642 L25.549,109.060 L20.218,128.945 L23.790,135.227 L123.598,76.714 L120.023,70.428 L100.403,65.173 Z"/>
</svg>