<svg 
 xmlns="http://www.w3.org/2000/svg"
 xmlns:xlink="http://www.w3.org/1999/xlink"
 width="24px" height="21px"  viewBox="0 0 24 21">
<path fill-rule="evenodd"  fill="rgb(255, 255, 255)"
 d="M17.999,20.999 L5.999,20.999 C2.685,20.999 -0.001,18.313 -0.001,15.000 L-0.001,7.999 C-0.001,4.685 2.685,1.999 5.999,1.999 L5.999,1.499 C5.999,0.671 6.671,-0.000 7.500,-0.000 C8.328,-0.000 9.000,0.671 9.000,1.499 L9.000,1.999 L15.000,1.999 L15.000,1.499 C15.000,0.671 15.671,-0.000 16.499,-0.000 C17.328,-0.000 17.999,0.671 17.999,1.499 L17.999,1.999 C21.313,1.999 23.999,4.685 23.999,7.999 L23.999,15.000 C23.999,18.313 21.313,20.999 17.999,20.999 ZM21.000,7.999 C21.000,6.345 19.654,5.000 17.999,5.000 L5.999,5.000 C4.345,5.000 3.000,6.345 3.000,7.999 L3.000,15.000 C3.000,16.654 4.345,17.999 5.999,17.999 L17.999,17.999 C19.654,17.999 21.000,16.654 21.000,15.000 L21.000,7.999 Z"/>
</svg>