<svg 
 xmlns="http://www.w3.org/2000/svg"
 xmlns:xlink="http://www.w3.org/1999/xlink"
 width="12px" height="12px">
<path fill-rule="evenodd"  fill="rgb(171, 180, 189)"
 d="M7.411,5.997 L10.946,9.533 C11.336,9.923 11.336,10.556 10.946,10.947 C10.555,11.337 9.922,11.337 9.531,10.947 L5.996,7.412 L2.461,10.947 C2.069,11.337 1.437,11.337 1.046,10.947 C0.656,10.556 0.656,9.923 1.046,9.533 L4.581,5.997 L1.046,2.462 C0.656,2.070 0.656,1.438 1.046,1.047 C1.437,0.657 2.069,0.657 2.461,1.047 L5.996,4.582 L9.531,1.047 C9.922,0.657 10.555,0.657 10.946,1.047 C11.336,1.438 11.336,2.070 10.946,2.462 L7.411,5.997 Z"/>
</svg>