<svg 
 xmlns="http://www.w3.org/2000/svg"
 xmlns:xlink="http://www.w3.org/1999/xlink"
 width="36px" height="36px">
<path fill-rule="evenodd"  fill="rgb(105, 200, 114)"
 d="M17.999,35.999 C8.057,35.999 -0.002,27.940 -0.002,17.999 C-0.002,8.058 8.057,-0.001 17.999,-0.001 C27.940,-0.001 35.998,8.058 35.998,17.999 C35.998,27.940 27.940,35.999 17.999,35.999 ZM17.999,2.999 C9.714,2.999 2.998,9.714 2.998,17.999 C2.998,26.283 9.714,32.999 17.999,32.999 C26.282,32.999 32.999,26.283 32.999,17.999 C32.999,9.714 26.282,2.999 17.999,2.999 ZM16.689,24.997 C14.693,22.546 12.256,20.178 9.996,17.984 L11.553,16.502 L15.662,19.979 C17.716,17.984 19.801,16.018 21.972,14.135 C23.059,13.195 24.705,11.712 25.964,10.998 C26.377,10.970 26.876,11.769 26.995,11.997 C23.413,15.076 19.243,20.922 16.689,24.997 Z"/>
</svg>