<svg 
 xmlns="http://www.w3.org/2000/svg"
 xmlns:xlink="http://www.w3.org/1999/xlink"
 width="28px" height="27px">
<path fill-rule="evenodd"  fill="rgb(255, 255, 255)"
 d="M23.742,25.850 L21.978,24.105 L19.509,26.548 C18.925,27.125 17.977,27.125 17.393,26.548 C16.808,25.969 16.808,25.033 17.393,24.454 L19.861,22.011 L16.298,18.486 C12.379,21.663 6.588,21.443 2.930,17.824 C-0.966,13.970 -0.966,7.721 2.930,3.866 C6.826,0.012 13.143,0.012 17.040,3.866 C20.452,7.243 20.875,12.456 18.309,16.288 L21.978,19.918 L24.447,17.475 C25.031,16.897 25.979,16.897 26.563,17.475 C27.148,18.053 27.148,18.990 26.563,19.569 L24.095,22.011 L25.858,23.756 C26.443,24.335 26.443,25.272 25.858,25.850 C25.274,26.427 24.326,26.427 23.742,25.850 ZM14.923,5.960 C12.196,3.262 7.774,3.262 5.046,5.960 C2.319,8.658 2.319,13.033 5.046,15.731 C7.774,18.429 12.196,18.429 14.923,15.731 C17.650,13.033 17.650,8.658 14.923,5.960 Z"/>
</svg>