<svg
  xmlns="http://www.w3.org/2000/svg"
  width="121px" height="41px">
<path fill-rule="evenodd"  fill="rgb(156, 166, 177)"
 d="M107.745,28.168 L97.808,28.168 L97.808,39.066 C97.808,39.993 96.990,40.748 95.971,40.748 C95.564,40.748 95.188,40.618 94.869,40.386 L94.804,40.335 L86.558,33.447 L86.344,33.273 C85.893,32.952 85.637,32.469 85.637,31.931 L85.637,17.861 L98.728,17.870 C106.663,17.870 108.580,14.319 108.793,11.344 L108.827,10.820 L108.279,10.799 C107.959,10.789 107.626,10.779 107.272,10.779 L97.302,10.789 C95.598,10.789 93.711,10.718 92.702,9.911 L86.505,4.676 C85.764,4.071 85.637,3.456 85.637,2.216 C85.637,1.278 86.451,0.480 87.428,0.480 L99.189,0.480 C106.050,0.480 110.597,3.052 112.000,7.723 L112.087,8.006 L112.399,8.075 C120.149,9.750 120.986,15.499 120.986,17.891 C120.986,20.302 120.030,28.168 107.745,28.168 ZM107.594,6.826 C106.031,4.717 103.047,3.648 98.728,3.648 L90.837,3.648 L95.554,7.642 L95.789,7.621 C95.842,7.621 95.907,7.611 95.971,7.611 L108.195,7.611 L107.594,6.826 ZM113.095,11.716 L112.441,11.455 L112.356,12.121 C112.022,14.804 110.071,21.038 99.189,21.038 L89.261,21.038 L89.261,31.054 L94.182,35.169 L94.182,24.992 L107.272,25.003 C116.052,25.003 117.361,20.544 117.361,17.891 C117.361,15.853 116.622,13.129 113.095,11.716 ZM62.285,40.496 L51.906,40.496 C51.661,40.496 51.435,40.467 51.263,40.397 C50.695,40.152 49.538,39.145 48.775,38.479 C48.540,38.278 48.338,38.095 48.154,37.952 L43.737,34.252 C43.618,34.150 43.471,34.041 43.319,33.910 C42.742,33.454 41.862,32.760 41.669,32.245 C41.602,32.066 41.573,31.882 41.573,31.690 L41.573,30.247 L53.174,30.247 C61.943,30.247 67.850,24.892 67.850,16.922 C67.850,15.024 67.506,13.240 66.842,11.628 L66.745,11.384 L66.488,11.324 C65.009,10.929 63.401,10.741 61.716,10.741 L53.846,10.741 C49.527,10.741 49.497,10.708 47.811,9.157 C47.492,8.874 47.126,8.528 46.675,8.134 L43.478,5.473 C41.561,3.869 41.561,3.869 41.573,2.508 L41.573,2.216 C41.583,1.256 42.388,0.480 43.362,0.480 L53.741,0.480 C60.687,0.480 66.176,3.364 69.200,8.591 L69.299,8.753 L69.478,8.813 C75.848,11.162 79.965,17.143 79.965,24.055 C79.965,31.973 74.434,40.496 62.285,40.496 ZM63.164,6.734 C60.580,4.686 57.119,3.597 53.174,3.597 L46.697,3.597 L51.544,7.642 L51.778,7.621 C51.822,7.611 51.865,7.611 51.906,7.611 L62.285,7.611 C62.457,7.611 62.629,7.621 62.799,7.621 L64.333,7.663 L63.164,6.734 ZM72.160,14.240 L71.076,13.291 L71.270,14.673 C71.367,15.420 71.421,16.178 71.421,16.922 C71.421,24.841 65.886,33.374 53.741,33.374 L48.132,33.374 L52.936,37.381 L61.716,37.381 C70.497,37.381 76.394,32.023 76.394,24.055 C76.394,20.049 74.927,16.661 72.160,14.240 ZM13.331,30.085 L13.599,30.146 C14.959,30.471 16.440,30.641 17.994,30.641 C22.135,30.641 24.857,29.703 27.675,28.300 C27.902,28.201 28.181,28.157 28.363,28.157 C28.844,28.157 29.252,28.323 29.585,28.663 L37.926,35.605 C38.270,35.867 38.462,36.279 38.441,36.705 C38.395,37.469 38.076,37.795 37.582,38.045 C34.839,39.498 31.322,40.992 26.079,40.992 C19.238,40.992 13.653,38.035 10.725,32.872 L10.630,32.709 L10.446,32.639 C3.810,30.189 -0.006,24.459 -0.006,16.922 C-0.006,6.805 7.037,-0.004 17.523,-0.004 C22.777,-0.004 26.293,1.488 29.038,2.950 C29.445,3.154 30.035,3.667 30.508,4.091 C30.668,4.232 30.818,4.363 30.957,4.485 L36.565,9.145 C36.724,9.297 36.908,9.429 37.079,9.559 C37.819,10.132 38.395,10.587 38.441,11.404 C38.462,11.777 38.323,12.130 38.055,12.394 C37.863,12.584 37.496,12.819 36.919,12.819 C36.724,12.819 36.447,12.786 36.232,12.687 C33.412,11.281 30.688,10.347 26.540,10.347 C17.814,10.347 12.172,15.732 12.172,24.055 C12.172,26.152 12.526,28.098 13.234,29.843 L13.331,30.085 ZM16.827,34.736 C19.324,36.755 22.594,37.773 26.540,37.773 C28.836,37.773 30.807,37.481 32.759,36.863 L33.637,36.593 L27.654,31.609 L27.335,31.752 C24.160,33.204 21.138,33.858 17.535,33.858 L15.711,33.828 L16.827,34.736 ZM26.079,7.129 C26.646,7.129 27.194,7.147 27.720,7.178 L29.286,7.280 L26.659,5.080 L26.530,5.011 C23.722,3.748 21.168,3.212 17.994,3.212 C9.266,3.212 3.626,8.599 3.626,16.922 C3.626,21.138 5.118,24.799 7.820,27.221 L8.914,28.190 L8.720,26.787 C8.604,25.899 8.549,24.973 8.549,24.055 C8.549,13.938 15.594,7.129 26.079,7.129 Z"/>
</svg>
