<svg
  xmlns="http://www.w3.org/2000/svg"
  width="48px" height="48px">
<path fill-rule="evenodd"  fill="rgb(156, 166, 177)"
 d="M23.999,48.000 C10.743,48.000 -0.001,37.255 -0.001,23.999 C-0.001,10.745 10.743,-0.000 23.999,-0.000 C37.254,-0.000 48.000,10.745 48.000,23.999 C48.000,37.255 37.254,48.000 23.999,48.000 ZM21.242,13.972 L21.544,26.172 L26.659,26.172 L26.760,13.972 L21.242,13.972 ZM26.405,28.205 C25.731,27.525 24.920,27.183 23.979,27.183 C23.037,27.183 22.236,27.515 21.572,28.183 C20.911,28.852 20.579,29.665 20.579,30.626 C20.579,31.614 20.899,32.428 21.537,33.066 C22.175,33.706 22.989,34.025 23.979,34.025 C24.930,34.025 25.742,33.695 26.412,33.037 C27.086,32.380 27.422,31.583 27.420,30.642 C27.420,29.699 27.084,28.889 26.405,28.205 Z"/>
</svg>
