<svg xmlns="http://www.w3.org/2000/svg" viewBox="-3 -3 28 28">
  <g fill="none" fill-rule="evenodd">
    <path fill="#E94B35"
          d="M17.8591508,12.7777778 C16.7151609,16.0144233 13.6283858,18.3333333 10,18.3333333 C6.37161418,18.3333333 3.2848391,16.0144233 2.14084915,12.7777778 L17.8591512,12.7777778 L17.8591512,12.7777778 L17.8591508,12.7777778 L17.8591508,12.7777778 L17.8591508,12.7777778 Z"/>
    <path fill="#227FBB"
          d="M17.8591508,12.7777779 C18.1662383,11.9089475 18.3333333,10.9739873 18.3333333,10 C18.3333333,9.02601269 18.1662383,8.09105253 17.8591508,7.22222219 L2.14084879,7.22222222 C1.83376171,8.09105253 1.66666667,9.02601269 1.66666667,10 C1.66666667,10.9739873 1.83376171,11.9089475 2.14084915,12.7777778 L17.8591512,12.7777778 L17.8591512,12.7777778 L17.8591508,12.7777779 L17.8591508,12.7777779 L17.8591508,12.7777779 Z"/>
    <path fill="#F2F2F2"
          d="M17.8591508,7.22222219 C16.7151609,3.98557662 13.6283858,1.66666667 10,1.66666667 C6.37161418,1.66666667 3.2848391,3.98557662 2.14084915,7.22222219 L17.8591512,7.22222222 L17.8591512,7.22222222 L17.8591508,7.22222219 L17.8591508,7.22222219 L17.8591508,7.22222219 Z"/>
  </g>
</svg>
